<svg xmlns="http://www.w3.org/2000/svg" version="1.1" xmlns:xlink="http://www.w3.org/1999/xlink" width="512" height="512" x="0" y="0" viewBox="0 0 32 32" style="enable-background:new 0 0 512 512" xml:space="preserve"><g><g data-name="Layer 2"><path d="M13.948 15.685a3 3 0 0 0 4.114.006l10.075-9.464A2.969 2.969 0 0 0 27 6H5a2.983 2.983 0 0 0-1.08.209z" fill="#ffffff" opacity="1" data-original="#000000"></path><path d="M19.431 17.149a5.007 5.007 0 0 1-6.857-.01L2.4 7.527A2.972 2.972 0 0 0 2 9v14a3 3 0 0 0 3 3h22a3 3 0 0 0 3-3V9a2.957 2.957 0 0 0-.377-1.425z" fill="#ffffff" opacity="1" data-original="#000000"></path></g></g></svg>